<?xml version="1.0" encoding="utf-8"?>
<!-- Generator: Adobe Illustrator 28.2.0, SVG Export Plug-In . SVG Version: 6.00 Build 0)  -->
<svg version="1.1" id="Livello_1" xmlns="http://www.w3.org/2000/svg" xmlns:xlink="http://www.w3.org/1999/xlink" x="0px" y="0px"
	 viewBox="0 0 743.1 85.3" style="enable-background:new 0 0 743.1 85.3;" xml:space="preserve">
<style type="text/css">
	.st0{fill:#FFFFFF;}
	.st1{fill:url(#SVGID_1_);}
	.st2{fill:url(#SVGID_00000183960916840542594230000015664081380241207697_);}
	.st3{fill:url(#SVGID_00000176045635475599113560000000605102554339625405_);}
	.st4{fill:url(#SVGID_00000124129603672768265480000016584346221526588562_);}
</style>
<path class="st0" d="M158.2,10.1c0-0.3,0.1-0.5,0.3-0.7c0.2-0.2,0.5-0.3,0.7-0.3h5.5c0.5,0,0.9,0.4,1,0.8l7.8,21.8
	c1.3-3.7,2.7-7.3,4-10.9c1.3-3.6,2.7-7.2,4-10.9c0.1-0.5,0.5-0.8,1-0.8h5.6c0.3,0,0.5,0.1,0.7,0.3c0.2,0.2,0.3,0.4,0.3,0.7
	c0.5,5.2,1.1,10.3,1.7,15.5c0.6,5.1,1.1,10.3,1.7,15.5l0,0c0,0.6-0.3,0.9-1,0.9h-4.3c-0.5,0-1-0.3-1-0.8c0-0.1,0-0.1,0-0.2l-2.3-21
	l-7.4,20.4c-0.1,0.2-0.2,0.4-0.4,0.6c-0.1,0.2-0.3,0.2-0.5,0.3h-4c-0.2,0-0.4-0.1-0.5-0.2c-0.2-0.2-0.3-0.4-0.4-0.6
	c-1.2-3.4-2.4-6.8-3.6-10.2c-1.2-3.4-2.5-6.8-3.7-10.2l-2.3,21.1c0,0.6-0.3,1-1,1h-4.3c-0.5,0.1-0.9-0.2-1-0.7c0-0.1,0-0.2,0-0.3
	L158.2,10.1z"/>
<path class="st0" d="M195.9,41.2c0.1-0.3,0.2-0.6,0.3-0.8c0.1-0.2,0.2-0.5,0.2-0.7l11.9-29.7c0.1-0.2,0.2-0.4,0.4-0.5
	c0.2-0.2,0.5-0.3,0.8-0.3h3.6c0.3,0,0.6,0.1,0.8,0.3c0.1,0.1,0.2,0.3,0.3,0.5l0.7,1.7l11.7,29.3c0,0.1,0,0.2,0,0.2
	c0,0.1,0,0.2,0,0.3c0,0.4-0.3,0.7-1,0.7h-4.4c-0.3,0-0.5-0.1-0.8-0.2c-0.2-0.2-0.3-0.4-0.4-0.6l-0.4-1l-0.8-2.1
	c-0.3-0.7-0.5-1.4-0.8-2.1h-13.6c-0.4,1-0.8,2-1.1,2.9s-0.7,1.7-0.9,2.4c-0.1,0.5-0.6,0.8-1.1,0.8h-4.4c-0.2,0-0.5,0-0.7-0.1
	c-0.2-0.1-0.3-0.3-0.3-0.5C195.8,41.3,195.8,41.2,195.9,41.2z M211.3,17.5c-0.8,2-1.6,4.2-2.4,6.3s-1.6,4.3-2.4,6.3h9.4L211.3,17.5z
	"/>
<path class="st0" d="M231.4,10.1c0-0.7,0.3-1,1-1H246c1.4,0,2.9,0.3,4.2,0.8c1.3,0.5,2.4,1.3,3.4,2.3c2,2,3.1,4.7,3.1,7.5
	c0,1-0.1,2-0.4,2.9c-0.8,2.7-2.7,5-5.3,6.4l5.8,11.4c0,0.2,0.1,0.3,0.1,0.4c0.1,0.1,0.1,0.3,0.1,0.5c0,0.4-0.2,0.7-0.8,0.7H251
	c-0.5,0-1-0.3-1.1-0.8l-5.4-10.6h-0.8h-1.1h-4.9v10.5c0,0.6-0.3,1-1,1h-4.5c-0.3,0-0.5-0.1-0.7-0.2c-0.2-0.2-0.3-0.5-0.3-0.7
	L231.4,10.1z M250.1,19.8c0-0.6-0.1-1.3-0.4-1.8c-0.2-0.6-0.6-1.1-1-1.6c-0.4-0.5-1-0.9-1.5-1.1c-0.6-0.3-1.3-0.5-1.9-0.5h-1.5h-5.9
	v10.3h6.7c0.3,0,0.6,0,0.8,0c0.7,0,1.3-0.2,1.9-0.5c0.6-0.3,1.1-0.6,1.5-1.1C249.6,22.4,250.1,21.1,250.1,19.8L250.1,19.8z"/>
<path class="st0" d="M287,11.5c0.2,0.1,0.3,0.2,0.4,0.4c0.1,0.2,0.2,0.3,0.2,0.5c0,0.2,0,0.4-0.1,0.5l-2.1,3.7
	c-0.2,0.3-0.5,0.5-0.8,0.5c-0.1,0-0.2,0-0.3-0.1c-0.1,0-0.2-0.1-0.4-0.2c-0.9-0.7-1.9-1.2-3-1.5c-1.1-0.4-2.2-0.6-3.4-0.6
	c-1.4,0-2.8,0.3-4.1,0.9c-1.2,0.6-2.3,1.3-3.3,2.3c-0.9,1-1.7,2.2-2.1,3.4c-1,2.7-1,5.7,0,8.4c0.5,1.3,1.2,2.4,2.1,3.4
	c0.9,1,2,1.8,3.3,2.3c1.3,0.6,2.7,0.9,4.1,0.8c1.2,0,2.3-0.2,3.4-0.5c1.1-0.4,2.1-0.9,3-1.6c0.1-0.1,0.2-0.1,0.4-0.2l0.3-0.1
	c0.3,0,0.6,0.2,0.8,0.5l2.2,3.7c0.1,0.2,0.1,0.3,0.1,0.5c0,0.2-0.1,0.4-0.2,0.5c-0.1,0.1-0.3,0.3-0.4,0.4c-1.4,0.9-2.9,1.7-4.5,2.2
	c-1.6,0.5-3.3,0.8-5.1,0.8c-3,0-6-0.8-8.6-2.3c-2.5-1.5-4.6-3.6-6.1-6.1c-0.7-1.3-1.3-2.6-1.7-4c-1.6-5.9,0-12.2,4.4-16.6
	c1-1,2.2-1.9,3.4-2.6c1.3-0.7,2.6-1.3,4-1.7c1.5-0.4,3-0.6,4.5-0.6c1.7,0,3.4,0.2,5,0.8C284.1,9.8,285.6,10.5,287,11.5z"/>
<path class="st0" d="M292.3,25.6c0-1.5,0.2-3,0.6-4.5c0.4-1.4,1-2.8,1.7-4.1c0.7-1.2,1.6-2.4,2.6-3.4c1-1,2.2-1.9,3.4-2.6
	c1.3-0.7,2.6-1.3,4-1.7c2.9-0.8,6.1-0.8,9,0c1.4,0.4,2.7,1,4,1.7c2.5,1.5,4.6,3.6,6.1,6.1c0.8,1.3,1.4,2.6,1.8,4.1
	c0.4,1.5,0.6,3,0.6,4.5c0,1.5-0.2,3-0.6,4.5c-0.4,1.4-1,2.7-1.7,4c-0.7,1.3-1.6,2.4-2.6,3.4c-1,1-2.2,1.9-3.4,2.6
	c-4,2.3-8.7,2.9-13.1,1.7c-1.4-0.4-2.8-1-4-1.7c-1.2-0.7-2.4-1.6-3.4-2.6C294,34.3,292.3,30,292.3,25.6L292.3,25.6z M298.7,25.5
	c0,1.4,0.3,2.9,0.8,4.2c1,2.5,3,4.6,5.5,5.7c1.3,0.6,2.7,0.9,4.2,0.8c1.4,0,2.8-0.3,4.1-0.8c2.5-1.1,4.5-3.1,5.6-5.7
	c1.1-2.7,1.1-5.7,0-8.4c-0.5-1.3-1.3-2.4-2.2-3.4c-1-1-2.1-1.8-3.3-2.3c-1.3-0.6-2.7-0.9-4.1-0.8c-1.4,0-2.8,0.3-4.2,0.8
	c-1.2,0.5-2.4,1.3-3.3,2.3C299.8,20,298.7,22.7,298.7,25.5L298.7,25.5z"/>
<path class="st0" d="M343.5,41.2c0.1-0.3,0.2-0.6,0.3-0.8c0.1-0.2,0.2-0.5,0.2-0.7l12-29.7c0.1-0.2,0.2-0.4,0.4-0.5
	c0.2-0.2,0.5-0.3,0.8-0.3h3.6c0.3,0,0.6,0.1,0.8,0.3c0.1,0.1,0.2,0.3,0.3,0.5l0.7,1.7l11.7,29.3c0,0.1,0,0.2,0,0.2
	c0,0.1,0,0.2,0,0.3c0,0.4-0.3,0.7-1,0.7h-4.4c-0.3,0-0.5-0.1-0.8-0.2c-0.2-0.2-0.4-0.4-0.5-0.6l-0.4-1l-0.8-2.1
	c-0.3-0.7-0.5-1.4-0.8-2.1h-13.5c-0.4,1-0.8,2-1.1,2.9s-0.7,1.7-0.9,2.4c-0.1,0.5-0.6,0.8-1.1,0.8h-4.4c-0.2,0-0.5,0-0.7-0.1
	c-0.2-0.1-0.3-0.3-0.3-0.5C343.6,41.3,343.6,41.2,343.5,41.2z M359,17.5c-0.8,2-1.6,4.2-2.4,6.3s-1.6,4.3-2.4,6.3h9.5L359,17.5z"/>
<path class="st0" d="M379.1,10.1c0-0.3,0.1-0.5,0.3-0.7c0.2-0.2,0.4-0.3,0.7-0.3h5.1c0.2,0,0.4,0,0.6,0.1c0.2,0.1,0.4,0.3,0.5,0.5
	c2.5,3.6,5,7.2,7.5,10.7s5,7.1,7.5,10.7V9.9c0-0.2,0.1-0.5,0.3-0.6c0.2-0.1,0.4-0.2,0.6-0.2h4.2c0.3,0,0.5,0.1,0.8,0.3
	c0.2,0.2,0.3,0.4,0.3,0.7v31c0,0.6-0.3,0.9-1,0.9h-4.8c-0.4,0-0.7-0.3-0.9-0.6c-2.6-3.8-5.2-7.5-7.8-11.3l-7.8-11.3v22.3
	c0,0.3-0.1,0.5-0.2,0.7c-0.2,0.2-0.5,0.3-0.8,0.2h-4.2c-0.3,0-0.5-0.1-0.8-0.2c-0.2-0.2-0.2-0.4-0.2-0.7L379.1,10.1z"/>
<path class="st0" d="M412.7,10.1c0-0.3,0.1-0.5,0.3-0.7c0.2-0.2,0.5-0.3,0.7-0.3H437c0.3,0,0.5,0.1,0.7,0.2c0.2,0.2,0.4,0.5,0.4,0.7
	v3.9c0,0.3-0.1,0.6-0.3,0.8c-0.2,0.2-0.5,0.4-0.8,0.3h-8.4V41c0,0.3-0.1,0.5-0.3,0.7c-0.2,0.2-0.5,0.3-0.8,0.3h-4.4
	c-0.3,0-0.5-0.1-0.7-0.3c-0.2-0.2-0.3-0.5-0.3-0.7V15.1h-8.4c-0.3,0-0.5-0.1-0.7-0.3c-0.2-0.2-0.3-0.5-0.3-0.8L412.7,10.1z"/>
<path class="st0" d="M442,25.6c0-3,0.8-6,2.3-8.6c0.7-1.3,1.6-2.4,2.6-3.4c1-1,2.2-1.9,3.4-2.6c1.3-0.7,2.6-1.3,4-1.7
	c2.9-0.8,6.1-0.8,9,0c1.4,0.4,2.7,1,4,1.7c1.3,0.7,2.4,1.6,3.4,2.6c1,1,1.9,2.2,2.7,3.4c0.7,1.3,1.3,2.6,1.7,4.1
	c0.4,1.5,0.6,3,0.6,4.5c0,1.5-0.2,3-0.6,4.5c-0.4,1.4-1,2.7-1.7,4c-0.7,1.3-1.6,2.4-2.7,3.4c-1,1-2.2,1.9-3.4,2.6
	c-5.3,3.1-11.8,3.1-17.1,0c-1.3-0.7-2.4-1.6-3.4-2.6C443.7,34.3,441.9,30,442,25.6L442,25.6z M448.4,25.5c0,2.8,1.1,5.5,3,7.6
	c1,1,2.1,1.7,3.3,2.3c2.6,1.1,5.6,1.1,8.3,0c2.5-1.1,4.5-3.1,5.6-5.7c1.1-2.7,1.1-5.7,0-8.4c-0.5-1.3-1.3-2.4-2.2-3.4
	c-0.9-1-2.1-1.8-3.3-2.3c-2.6-1.1-5.6-1.1-8.3,0c-1.3,0.5-2.4,1.3-3.3,2.3C449.5,20,448.4,22.7,448.4,25.5z"/>
<path class="st0" d="M481.7,10.1c0-0.3,0.1-0.5,0.2-0.7c0.2-0.2,0.4-0.3,0.7-0.3h5.1c0.2,0,0.4,0,0.6,0.1c0.2,0.1,0.4,0.3,0.5,0.5
	c2.5,3.6,5,7.2,7.5,10.7s5,7.1,7.5,10.7V9.9c0-0.2,0.2-0.5,0.3-0.6c0.2-0.1,0.4-0.2,0.7-0.2h4.3c0.3,0,0.6,0.1,0.8,0.3
	c0.2,0.2,0.3,0.4,0.3,0.7v31c0,0.6-0.3,0.9-1,0.9h-4.8c-0.4,0-0.7-0.3-0.9-0.6c-2.6-3.8-5.2-7.5-7.8-11.3L488,18.8v22.3
	c0,0.3-0.1,0.5-0.2,0.7c-0.2,0.2-0.5,0.3-0.8,0.2h-4.3c-0.3,0-0.5-0.1-0.7-0.2c-0.2-0.2-0.2-0.4-0.2-0.7L481.7,10.1z"/>
<path class="st0" d="M517.4,10.1c0-0.3,0.1-0.5,0.2-0.7c0.2-0.2,0.5-0.3,0.7-0.3h4.4c0.3,0,0.5,0.1,0.7,0.3c0.2,0.2,0.3,0.4,0.3,0.7
	v31c0,0.6-0.3,1-1,1h-4.4c-0.5,0.1-0.9-0.2-1-0.7c0-0.1,0-0.2,0-0.3V10.1z"/>
<path class="st0" d="M529.7,25.6c0-3,0.8-6,2.3-8.6c0.7-1.2,1.6-2.4,2.7-3.4c1-1,2.2-1.9,3.4-2.6c1.3-0.7,2.6-1.3,4-1.7
	c2.9-0.8,6.1-0.8,9,0c1.4,0.4,2.7,1,4,1.7c1.3,0.7,2.4,1.6,3.4,2.6c2.1,2.1,3.6,4.7,4.3,7.5c0.4,1.5,0.6,3,0.6,4.5
	c0,1.5-0.2,3-0.6,4.5c-1.2,4.3-4,7.9-7.8,10.1c-1.3,0.7-2.6,1.3-4,1.7c-4.4,1.2-9.1,0.6-13.1-1.7c-1.2-0.7-2.4-1.6-3.4-2.6
	C531.4,34.3,529.6,30,529.7,25.6L529.7,25.6z M536.1,25.5c0,1.4,0.3,2.9,0.8,4.2c1,2.5,3,4.6,5.5,5.7c1.3,0.6,2.7,0.9,4.2,0.8
	c1.4,0,2.8-0.3,4.1-0.8c2.5-1.1,4.5-3.1,5.6-5.7c1.1-2.7,1.1-5.7,0-8.4c-0.5-1.3-1.3-2.4-2.2-3.4c-1-1-2.1-1.8-3.3-2.3
	c-1.3-0.6-2.7-0.9-4.1-0.8c-1.4,0-2.8,0.3-4.2,0.8c-1.2,0.5-2.4,1.3-3.3,2.3C537.2,20,536.1,22.7,536.1,25.5L536.1,25.5z"/>
<path class="st0" d="M583.3,10.1c0-0.7,0.3-1,1-1h13.6c1.4,0,2.9,0.3,4.2,0.8c2.6,1.1,4.6,3.1,5.7,5.7c0.6,1.3,0.8,2.7,0.8,4.1
	c0,1-0.1,2-0.4,2.9c-0.3,0.9-0.7,1.8-1.2,2.6c-0.5,0.8-1.1,1.5-1.8,2.2c-0.7,0.6-1.5,1.2-2.3,1.6l5.7,11.3c0,0.2,0.1,0.3,0.2,0.4
	c0.1,0.1,0.1,0.3,0.1,0.5c0,0.4-0.3,0.7-0.8,0.7h-5.1c-0.5,0-1-0.3-1.1-0.8l-5.3-10.6h-0.8h-1.1h-4.9v10.5c0,0.6-0.3,1-1,1h-4.5
	c-0.3,0-0.5-0.1-0.7-0.2c-0.2-0.2-0.3-0.5-0.3-0.7V10.1z M602,19.8c0-0.6-0.1-1.3-0.4-1.8c-0.5-1.2-1.4-2.2-2.5-2.8
	c-0.6-0.3-1.3-0.5-1.9-0.5h-1.5h-5.9v10.3h6.7c0.2,0,0.5,0,0.8,0c0.7,0,1.3-0.2,1.9-0.5c0.6-0.3,1.1-0.6,1.5-1.1
	c0.4-0.5,0.8-1,1-1.6C601.9,21.1,602,20.4,602,19.8L602,19.8z"/>
<path class="st0" d="M620.3,28.6c0,1.1,0.2,2.3,0.5,3.3c0.3,0.9,0.8,1.8,1.5,2.5c0.6,0.7,1.4,1.2,2.3,1.6c1,0.4,2,0.6,3,0.5
	c1.1,0,2.1-0.2,3.1-0.6c0.9-0.4,1.7-0.9,2.3-1.6c0.7-0.7,1.1-1.6,1.5-2.5c0.3-1,0.5-2.1,0.5-3.2V10.1c0-0.3,0.1-0.5,0.3-0.7
	c0.2-0.2,0.5-0.3,0.7-0.3h4.3c0.3,0,0.6,0.1,0.8,0.3c0.2,0.2,0.3,0.4,0.3,0.7v18.8c0,2.1-0.3,4.1-1.1,6c-1.3,3.2-4,5.7-7.4,6.8
	c-1.7,0.6-3.5,0.9-5.3,0.8c-1.8,0-3.6-0.3-5.3-0.9c-1.6-0.6-3.1-1.5-4.4-2.6c-1.3-1.2-2.3-2.7-3-4.3c-0.8-1.9-1.1-3.8-1.1-5.9V10.1
	c0-0.2,0.1-0.5,0.3-0.7c0.2-0.2,0.4-0.3,0.7-0.3h4.5c0.3,0,0.5,0.1,0.7,0.3c0.2,0.2,0.3,0.4,0.3,0.7L620.3,28.6z"/>
<path class="st0" d="M666.7,17.9c-0.2,0-0.4-0.1-0.5-0.1c-0.2-0.1-0.4-0.2-0.6-0.4l0,0c-0.3-0.3-0.7-0.6-1.1-0.9
	c-0.5-0.4-1-0.7-1.5-1c-0.6-0.3-1.2-0.6-1.8-0.8c-0.6-0.2-1.3-0.3-1.9-0.3c-0.7,0-1.5,0.1-2.2,0.3c-0.6,0.2-1.1,0.4-1.6,0.8
	c-0.4,0.3-0.8,0.7-1,1.1c-0.2,0.4-0.3,0.9-0.3,1.4c0,0.5,0.2,1,0.5,1.4c0.4,0.4,0.8,0.8,1.3,1.1c0.6,0.3,1.3,0.6,2,0.9
	c0.7,0.3,1.5,0.5,2.3,0.8s1.9,0.6,2.8,0.9c0.9,0.3,1.8,0.7,2.6,1.1c0.8,0.4,1.6,0.8,2.3,1.4c0.7,0.5,1.3,1.1,1.9,1.7
	c0.5,0.6,0.9,1.4,1.2,2.1c0.3,0.9,0.5,1.8,0.5,2.7c0,1.5-0.3,3-1,4.4c-0.6,1.3-1.6,2.4-2.7,3.3c-1.2,1-2.5,1.7-4,2.1
	c-1.6,0.5-3.3,0.8-5,0.7c-1.1,0-2.3-0.1-3.4-0.4c-1.1-0.3-2.2-0.6-3.2-1.1c-1-0.5-2-1.1-2.9-1.8c-0.9-0.7-1.7-1.5-2.5-2.3l0,0v-0.1
	c-0.3-0.3-0.5-0.6-0.5-1c0-0.2,0-0.3,0.1-0.5c0.1-0.2,0.3-0.3,0.4-0.5l0.7-0.7c0.2-0.2,0.5-0.4,0.7-0.6s0.5-0.5,0.8-0.6
	s0.5-0.4,0.7-0.5c0.2-0.1,0.3-0.2,0.5-0.2c0.2,0,0.4,0.1,0.6,0.2c0.2,0.1,0.3,0.2,0.5,0.4l0.1,0.1l0,0c0.5,0.5,1.1,1,1.7,1.4
	c0.6,0.4,1.3,0.8,2,1.2c0.6,0.3,1.3,0.6,2,0.8c0.6,0.2,1.3,0.3,1.9,0.3c0.8,0,1.5-0.1,2.3-0.3c0.7-0.2,1.3-0.5,1.8-0.9
	c0.5-0.4,0.9-0.8,1.2-1.4c0.3-0.5,0.4-1.2,0.4-1.8c0-0.6-0.2-1.2-0.6-1.7c-0.4-0.5-0.9-0.9-1.5-1.2c-0.7-0.4-1.4-0.7-2.1-0.9
	c-0.8-0.2-1.5-0.5-2.3-0.7c-1.6-0.5-3.2-1.1-4.7-1.8c-1.2-0.5-2.4-1.3-3.4-2.1c-1.8-1.5-2.8-3.7-2.7-6c0-2.6,1.1-5.1,3.2-6.7
	c1.1-0.8,2.3-1.5,3.7-1.9c1.6-0.5,3.2-0.7,4.8-0.7c1.4,0,2.8,0.2,4.1,0.6c1.4,0.4,2.7,1,3.9,1.7c0.3,0.2,0.7,0.5,1.1,0.8
	c0.3,0.3,0.7,0.5,1,0.9c0.3,0.3,0.5,0.5,0.8,0.8c0.2,0.2,0.3,0.4,0.3,0.7c0,0.2-0.1,0.4-0.1,0.5c-0.1,0.2-0.2,0.3-0.3,0.5l-0.7,0.7
	l0,0l-0.7,0.7c-0.2,0.2-0.5,0.5-0.7,0.7c-0.2,0.2-0.5,0.4-0.6,0.5C667.1,17.8,666.9,17.8,666.7,17.9z"/>
<path class="st0" d="M695.9,17.9c-0.2,0-0.4-0.1-0.5-0.1c-0.2-0.1-0.4-0.2-0.5-0.4l0,0c-0.3-0.3-0.7-0.6-1.1-0.9
	c-0.5-0.4-1-0.7-1.5-1c-0.6-0.3-1.1-0.6-1.8-0.8c-0.6-0.2-1.3-0.3-1.9-0.3c-0.7,0-1.5,0.1-2.2,0.3c-0.6,0.2-1.1,0.4-1.6,0.8
	c-0.4,0.3-0.8,0.7-1,1.1c-0.2,0.4-0.3,0.9-0.3,1.4c0,0.5,0.2,1,0.5,1.4c0.4,0.4,0.8,0.8,1.3,1.1c0.6,0.3,1.3,0.6,2,0.9
	c0.7,0.3,1.5,0.5,2.3,0.8s1.8,0.6,2.8,0.9c0.9,0.3,1.8,0.7,2.6,1.1c0.8,0.4,1.6,0.8,2.3,1.4c0.7,0.5,1.3,1.1,1.9,1.7
	c0.5,0.6,0.9,1.4,1.2,2.1c0.3,0.9,0.5,1.8,0.5,2.7c0,1.5-0.3,3-1,4.4c-0.6,1.3-1.6,2.4-2.7,3.3c-1.2,1-2.5,1.7-4,2.1
	c-1.6,0.5-3.3,0.8-5,0.7c-1.1,0-2.3-0.1-3.4-0.4c-1.1-0.3-2.2-0.6-3.2-1.1c-1-0.5-2-1.1-2.9-1.8c-0.9-0.7-1.7-1.5-2.5-2.3l0,0v-0.1
	c-0.3-0.3-0.4-0.6-0.5-1c0-0.2,0-0.3,0.1-0.5c0.1-0.2,0.2-0.3,0.4-0.5L677,34c0.2-0.2,0.5-0.4,0.7-0.6s0.5-0.5,0.8-0.6
	s0.5-0.4,0.7-0.5c0.2-0.1,0.3-0.2,0.5-0.2c0.2,0,0.4,0.1,0.6,0.2c0.2,0.1,0.3,0.2,0.4,0.4l0.1,0.1l0,0c0.5,0.5,1.1,1,1.7,1.4
	c0.6,0.4,1.3,0.8,2,1.2c0.6,0.3,1.3,0.6,2,0.8c0.6,0.2,1.2,0.3,1.9,0.3c0.8,0,1.5-0.1,2.3-0.3c0.7-0.2,1.3-0.5,1.8-0.9
	c0.5-0.4,0.9-0.8,1.2-1.4c0.3-0.5,0.5-1.2,0.5-1.8c0-0.6-0.2-1.2-0.6-1.7c-0.4-0.5-0.9-0.9-1.5-1.2c-0.7-0.4-1.4-0.7-2.1-0.9
	c-0.8-0.2-1.5-0.5-2.3-0.7c-1.6-0.5-3.2-1.1-4.7-1.8c-1.2-0.5-2.4-1.3-3.4-2.1c-1.8-1.5-2.8-3.7-2.7-6c0-2.6,1.1-5.1,3.2-6.7
	c1.1-0.8,2.3-1.5,3.7-1.9c1.6-0.5,3.2-0.7,4.8-0.7c1.4,0,2.8,0.2,4.1,0.6c1.4,0.4,2.6,1,3.8,1.7c0.4,0.2,0.7,0.5,1.1,0.8
	c0.3,0.3,0.7,0.5,1,0.9c0.3,0.3,0.5,0.5,0.8,0.8c0.2,0.2,0.3,0.4,0.3,0.7c0,0.2,0,0.4-0.1,0.5c-0.1,0.2-0.2,0.3-0.3,0.5l-0.7,0.7
	l0,0l-0.7,0.7c-0.2,0.2-0.5,0.5-0.7,0.7c-0.2,0.2-0.5,0.4-0.6,0.5C696.3,17.8,696.1,17.9,695.9,17.9z"/>
<path class="st0" d="M705.2,25.6c0-1.5,0.2-3,0.6-4.5c0.4-1.4,1-2.8,1.7-4.1c0.7-1.3,1.6-2.4,2.7-3.4c1-1,2.2-1.9,3.4-2.6
	c1.3-0.7,2.6-1.3,4-1.7c2.9-0.8,6.1-0.8,9,0c1.4,0.4,2.7,1,4,1.7c2.5,1.5,4.6,3.6,6.1,6.1c0.7,1.3,1.3,2.6,1.7,4.1
	c0.4,1.5,0.6,3,0.6,4.5c0,1.5-0.2,3-0.6,4.5c-0.4,1.4-1,2.7-1.7,4c-0.7,1.3-1.6,2.4-2.6,3.4c-1,1-2.2,1.9-3.4,2.6
	c-1.3,0.7-2.6,1.3-4,1.7c-9,2.5-18.3-2.8-20.8-11.8C705.4,28.6,705.2,27.1,705.2,25.6z M711.6,25.5c0,1.4,0.3,2.9,0.8,4.2
	c0.5,1.3,1.3,2.4,2.2,3.4c0.9,1,2.1,1.8,3.3,2.3c2.6,1.1,5.6,1.1,8.3,0c2.5-1.1,4.5-3.1,5.6-5.7c1.1-2.7,1.1-5.7,0-8.4
	c-0.5-1.3-1.3-2.4-2.2-3.4c-0.9-1-2.1-1.8-3.3-2.3c-4-1.7-8.6-0.8-11.6,2.3C712.7,20,711.6,22.7,711.6,25.5L711.6,25.5z"/>
<path class="st0" d="M162.6,77.5c-0.1,0.2-0.4,0.4-0.6,0.4h-1.1c-0.1,0-0.2,0-0.3-0.1c-0.1-0.1-0.2-0.2-0.2-0.3l-3.9-19.3
	c0-0.1,0-0.3,0.1-0.4c0.1-0.1,0.2-0.2,0.4-0.2h1.6c0.1,0,0.2,0,0.3,0.1c0.1,0.1,0.1,0.2,0.1,0.3l3.1,15.9l9.8-15.9
	c0.1-0.1,0.2-0.2,0.3-0.3c0.1-0.1,0.2-0.1,0.3-0.1h1.9c0.1,0,0.2,0,0.2,0.1c0.1,0.1,0.1,0.1,0.1,0.2c0,0.1,0,0.2-0.1,0.3l-4.9,7.9
	l1.6,7.9l9.8-15.9c0.1-0.1,0.2-0.2,0.3-0.3c0.1-0.1,0.2-0.1,0.3-0.1h2c0.1,0,0.2,0,0.2,0.1c0.1,0.1,0.1,0.1,0.1,0.2
	c0,0.1,0,0.2-0.1,0.3L172,77.5c-0.1,0.2-0.4,0.4-0.6,0.4h-1.1c-0.1,0-0.2,0-0.3-0.1c-0.1-0.1-0.2-0.2-0.2-0.3L168,69L162.6,77.5z"/>
<path class="st0" d="M193,57.6h13.4c0.3,0,0.4,0.1,0.4,0.3c0,0,0,0.1,0,0.1l-0.4,1.7c0,0.3-0.3,0.5-0.6,0.5h-11.2l-1.2,5.6h8.7
	c0.3,0,0.5,0.1,0.5,0.4c0,0,0,0.1,0,0.1l-0.4,1.7c-0.1,0.3-0.4,0.5-0.7,0.5h-8.7l-1.4,6.7h11.2c0.3,0,0.4,0.1,0.4,0.3
	c0,0,0,0.1,0,0.1l-0.4,1.7c0,0.3-0.3,0.5-0.6,0.5h-13.4c-0.2,0-0.4-0.1-0.4-0.3c0-0.1,0-0.1,0-0.2l4.1-19.4
	C192.5,57.8,192.7,57.6,193,57.6z"/>
<path class="st0" d="M216,57.6h8.5c0.8,0,1.5,0.2,2.2,0.5c0.6,0.4,1.2,0.9,1.5,1.5c0.4,0.7,0.6,1.4,0.5,2.2c0,2.1-1.1,4.1-2.9,5.3
	c0.6,0.3,1.2,0.9,1.5,1.5c0.4,0.7,0.5,1.5,0.5,2.3c0,0.4,0,0.9-0.1,1.3c-0.2,1-0.7,2-1.4,2.8c-0.7,0.9-1.5,1.6-2.5,2.1
	c-0.9,0.5-1.9,0.8-2.9,0.8h-9.3c-0.3,0-0.4-0.1-0.4-0.3c0-0.1,0-0.1,0-0.2l4.1-19.4C215.5,57.8,215.7,57.6,216,57.6z M214.4,75.4
	h6.8c0.6,0,1.3-0.2,1.8-0.5c0.5-0.3,1-0.7,1.4-1.2c0.3-0.4,0.6-0.9,0.7-1.5c0.1-0.3,0.1-0.6,0.1-0.9c0.1-0.7-0.2-1.4-0.7-1.9
	c-0.5-0.4-1.2-0.6-1.8-0.6h-6.8L214.4,75.4z M216.4,66.2h5.8c0.6,0,1.2-0.1,1.7-0.4c1.1-0.5,1.9-1.5,2.2-2.7c0.1-0.3,0.1-0.7,0.1-1
	c0-1.3-0.9-2-2.6-2h-5.9L216.4,66.2z"/>
<path class="st0" d="M254,57.6h6.5c1.5,0,3.1,0.3,4.4,1.1c1.3,0.7,2.3,1.7,3,2.9c0.7,1.3,1.1,2.7,1,4.1c0,0.7-0.1,1.3-0.2,2
	c-0.4,1.9-1.3,3.6-2.5,5.1c-1.2,1.5-2.8,2.8-4.5,3.7c-1.7,0.9-3.6,1.4-5.5,1.4h-6.6c-0.3,0-0.4-0.1-0.4-0.3c0-0.1,0-0.1,0-0.2
	l4.1-19.3C253.5,57.8,253.7,57.6,254,57.6z M266.3,66c0-1-0.2-2.1-0.7-3c-0.5-0.9-1.2-1.6-2.1-2.1c-1-0.5-2.2-0.8-3.4-0.8h-4.4
	l-3.3,15.3h3.8c1.5,0,3-0.3,4.3-1c1.4-0.7,2.6-1.6,3.6-2.8c1-1.1,1.6-2.4,1.9-3.9C266.2,67.2,266.3,66.6,266.3,66L266.3,66z"/>
<path class="st0" d="M280.5,57.6h13.4c0.3,0,0.4,0.1,0.4,0.3c0,0,0,0.1,0,0.1l-0.4,1.7c0,0.3-0.3,0.5-0.6,0.5h-11.2l-1.2,5.6h8.7
	c0.3,0,0.5,0.1,0.5,0.4c0,0,0,0.1,0,0.1l-0.4,1.7c-0.1,0.3-0.3,0.5-0.6,0.5h-8.7l-1.4,6.7h11.2c0.3,0,0.4,0.1,0.4,0.3
	c0,0,0,0.1,0,0.1l-0.4,1.7c0,0.3-0.3,0.5-0.6,0.5h-13.4c-0.2,0-0.4-0.1-0.4-0.3s0-0.1,0-0.2l4.1-19.4
	C280,57.8,280.3,57.6,280.5,57.6z"/>
<path class="st0" d="M307.2,77.9h-1.1c-0.1,0-0.2,0-0.3-0.1c-0.1-0.1-0.1-0.2-0.2-0.3l-4-19.3c0,0,0-0.1,0-0.1c0-0.1,0-0.3,0.1-0.3
	c0.1-0.1,0.2-0.1,0.4-0.1h1.8c0.2,0,0.4,0.1,0.4,0.4l3,15.7l9.6-15.7c0.1-0.2,0.4-0.4,0.6-0.4h2c0.1,0,0.2,0,0.2,0.1
	c0.1,0,0.1,0.1,0.1,0.2c0,0.1-0.1,0.2-0.1,0.3l-12,19.3C307.8,77.8,307.5,77.9,307.2,77.9z"/>
<path class="st0" d="M328.7,57.6h13.4c0.3,0,0.4,0.1,0.4,0.3c0,0,0,0.1,0,0.1l-0.4,1.7c0,0.3-0.3,0.5-0.6,0.5h-11.2l-1.2,5.6h8.7
	c0.3,0,0.5,0.1,0.5,0.4c0,0,0,0.1,0,0.1l-0.4,1.7c-0.1,0.3-0.3,0.5-0.6,0.5h-8.7l-1.4,6.7h11.2c0.3,0,0.4,0.1,0.4,0.3
	c0,0,0,0.1,0,0.1l-0.4,1.7c0,0.3-0.3,0.5-0.6,0.5h-13.4c-0.2,0-0.4-0.1-0.4-0.3s0-0.1,0-0.2l4.1-19.4
	C328.2,57.8,328.4,57.6,328.7,57.6z"/>
<path class="st0" d="M351.3,57.8c0.1-0.1,0.2-0.1,0.4-0.1h1.7c0.2,0,0.3,0.1,0.3,0.3c0,0,0,0,0,0.1c0,0.1,0,0.1,0,0.2l-3.7,17.3h10
	c0.3,0,0.5,0.1,0.5,0.3c0,0,0,0.1,0,0.1l-0.3,1.5c-0.1,0.3-0.3,0.5-0.6,0.5h-12.2c-0.3,0-0.4-0.1-0.4-0.3c0-0.1,0-0.1,0-0.2
	l4.1-19.3C351.1,58,351.2,57.9,351.3,57.8z"/>
<path class="st0" d="M371.3,62.6c1.3-1.6,2.8-2.9,4.6-3.8c1.7-0.9,3.6-1.4,5.5-1.4c1.5,0,3,0.3,4.4,1.1c1.3,0.7,2.3,1.7,3,3
	c0.7,1.3,1.1,2.7,1,4.2c0,0.7-0.1,1.5-0.2,2.2c-0.4,1.9-1.3,3.7-2.5,5.2c-1.2,1.6-2.8,2.8-4.5,3.8c-1.7,0.9-3.6,1.4-5.5,1.4
	c-1.5,0-3-0.3-4.4-1.1c-1.3-0.7-2.3-1.7-3-2.9c-0.7-1.3-1.1-2.7-1.1-4.2c0-0.7,0.1-1.5,0.2-2.2C369.3,65.9,370.1,64.1,371.3,62.6z
	 M371.3,69.6c0,1.1,0.2,2.1,0.7,3.1c0.5,0.9,1.2,1.6,2.1,2.1c1,0.5,2.1,0.8,3.2,0.8c1.5,0,2.9-0.4,4.2-1c1.4-0.7,2.6-1.7,3.5-2.8
	c1.4-1.6,2.1-3.7,2.1-5.8c0-1.1-0.2-2.1-0.7-3.1c-0.5-0.9-1.2-1.6-2.1-2.1c-1-0.5-2.1-0.8-3.2-0.8c-1.5,0-3,0.4-4.4,1
	c-1.4,0.7-2.5,1.6-3.5,2.8C372.1,65.5,371.3,67.5,371.3,69.6L371.3,69.6z"/>
<path class="st0" d="M401.2,57.7c0.1-0.1,0.2-0.1,0.4-0.1h7.3c0.9,0,1.8,0.2,2.5,0.7c0.7,0.5,1.3,1.1,1.6,1.9
	c0.4,0.8,0.5,1.7,0.5,2.5c0,0.4,0,0.9-0.1,1.3c-0.2,1.1-0.7,2.1-1.4,2.9c-0.7,0.9-1.5,1.7-2.5,2.3c-1,0.6-2.1,0.9-3.2,0.9h-5.2
	l-1.5,7.2c0,0.3-0.3,0.5-0.6,0.5h-1.7c-0.3,0-0.4-0.1-0.4-0.3c0-0.1,0-0.1,0-0.2l4.1-19.4C401.1,57.9,401.1,57.8,401.2,57.7z
	 M401.6,67.6h4.6c1.5,0,2.9-0.7,3.8-1.8c0.4-0.5,0.7-1.1,0.9-1.8c0.1-0.3,0.1-0.7,0.1-1c0-0.7-0.2-1.4-0.7-2c-0.5-0.6-1.3-0.8-2-0.8
	h-5L401.6,67.6z"/>
<path class="st0" d="M424.5,57.6h13.4c0.3,0,0.4,0.1,0.4,0.3c0,0,0,0.1,0,0.1l-0.4,1.7c0,0.3-0.3,0.5-0.6,0.5c0,0,0,0,0,0h-11.2
	l-1.2,5.6h8.7c0.3,0,0.5,0.1,0.5,0.4c0,0,0,0.1,0,0.1l-0.4,1.7c-0.1,0.3-0.3,0.5-0.6,0.5h-8.7l-1.4,6.7h11.2c0.3,0,0.4,0.1,0.4,0.3
	c0,0,0,0.1,0,0.1l-0.4,1.7c0,0.3-0.3,0.5-0.6,0.5h-13.4c-0.3,0-0.4-0.1-0.4-0.3c0-0.1,0-0.1,0-0.2l4.1-19.4
	C424,57.8,424.3,57.6,424.5,57.6z"/>
<path class="st0" d="M446.9,70.6l-1.5,6.9c0,0.3-0.3,0.5-0.6,0.5c0,0,0,0,0,0h-1.7c-0.2,0-0.4-0.1-0.4-0.3c0-0.1,0-0.1,0-0.2
	l4.1-19.4c0-0.3,0.3-0.5,0.6-0.5h8.3c0.9,0,1.9,0.2,2.7,0.7c0.7,0.4,1.3,1.1,1.7,1.8c0.4,0.8,0.6,1.7,0.6,2.6c0,0.5-0.1,1-0.2,1.4
	c-0.2,0.8-0.5,1.6-1,2.3c-0.5,0.8-1.1,1.5-1.8,2.1c-0.7,0.6-1.4,1.1-2.3,1.5l2,7.3c0,0,0,0.1,0,0.1c0,0.3-0.2,0.5-0.5,0.5
	c0,0,0,0,0,0h-1.7c-0.1,0-0.2,0-0.3-0.1c-0.1-0.1-0.1-0.2-0.2-0.3l-1.8-7L446.9,70.6z M447.5,68.1h5.4c0.8,0,1.6-0.2,2.3-0.5
	c0.7-0.3,1.3-0.8,1.8-1.4c0.5-0.6,0.8-1.3,1-2c0.1-0.4,0.1-0.8,0.1-1.2c0-0.8-0.2-1.5-0.8-2.1c-0.7-0.6-1.5-0.8-2.4-0.8h-5.8
	L447.5,68.1z"/>
<linearGradient id="SVGID_1_" gradientUnits="userSpaceOnUse" x1="9.2003" y1="10.0092" x2="140.6403" y2="60.6692" gradientTransform="matrix(1 0 0 -1 0 88)">
	<stop  offset="0" style="stop-color:#2FAC66"/>
	<stop  offset="0.33" style="stop-color:#00A19A"/>
	<stop  offset="1" style="stop-color:#27348B"/>
</linearGradient>
<polygon class="st1" points="55.8,75.8 55.9,75.9 90.6,41.2 90.6,30.8 55.8,65.6 "/>
<linearGradient id="SVGID_00000083090095943456002350000013387716787692801153_" gradientUnits="userSpaceOnUse" x1="51.6038" y1="-226.864" x2="183.0438" y2="-176.2039" gradientTransform="matrix(1 0 0 -1 -49.39 -167)">
	<stop  offset="0" style="stop-color:#2FAC66"/>
	<stop  offset="0.33" style="stop-color:#00A19A"/>
	<stop  offset="1" style="stop-color:#27348B"/>
</linearGradient>
<path style="fill:url(#SVGID_00000083090095943456002350000013387716787692801153_);" d="M92.1,18.3c-0.8-1.5-2-2.8-3.5-3.6
	c0.1,0.2,0.5,1.2,0,1.9s-2.3,1-3.9-0.2c-2.7,0.5-5.4,0.8-8.1,0.8c-3.1,0-6.2-0.3-9.3-0.9c0.7,1,1.5,1.8,2.5,2.6
	c0.8,0.6,1.6,1.1,2.4,1.5C70.9,21.2,69.5,22,68,23c-4.5,2.9-8.6,6.3-12.2,10.1c4.2-3.3,9.2-5.4,14.5-5.9L46.7,50.8v10.4l29.8-29.8
	c1.1-0.2,2.2-0.1,3.2,0.3c0.8-2.2,2.1-4.2,3.9-5.7c2.6-2.1,5.9-3.1,9.3-2.8C93.1,21.5,92.9,19.8,92.1,18.3z"/>
<linearGradient id="SVGID_00000052805404978076793040000010439649908768838076_" gradientUnits="userSpaceOnUse" x1="8.0403" y1="13.0193" x2="139.4803" y2="63.6793" gradientTransform="matrix(1 0 0 -1 0 88)">
	<stop  offset="0" style="stop-color:#2FAC66"/>
	<stop  offset="0.33" style="stop-color:#00A19A"/>
	<stop  offset="1" style="stop-color:#27348B"/>
</linearGradient>
<polygon style="fill:url(#SVGID_00000052805404978076793040000010439649908768838076_);" points="97.1,0 86.8,0 129.4,42.6 
	86.8,85.3 97.1,85.3 139.8,42.6 "/>
<linearGradient id="SVGID_00000067208180174501954850000008977798964812277926_" gradientUnits="userSpaceOnUse" x1="2.331" y1="27.8275" x2="133.771" y2="78.4875" gradientTransform="matrix(1 0 0 -1 0 88)">
	<stop  offset="0" style="stop-color:#2FAC66"/>
	<stop  offset="0.33" style="stop-color:#00A19A"/>
	<stop  offset="1" style="stop-color:#27348B"/>
</linearGradient>
<polygon style="fill:url(#SVGID_00000067208180174501954850000008977798964812277926_);" points="53,85.3 10.4,42.6 53,0 42.6,0 
	0,42.6 42.6,85.3 "/>
</svg>
